<?xml version="1.0" encoding="UTF-8" standalone="no"?>
<!-- Created with Inkscape (http://www.inkscape.org/) -->

<svg
   version="1.1"
   id="svg9"
   width="160"
   height="160"
   viewBox="0 0 160 160"
   sodipodi:docname="icon.svg"
   inkscape:version="1.1.1 (3bf5ae0d25, 2021-09-20)"
   xmlns:inkscape="http://www.inkscape.org/namespaces/inkscape"
   xmlns:sodipodi="http://sodipodi.sourceforge.net/DTD/sodipodi-0.dtd"
   xmlns="http://www.w3.org/2000/svg"
   xmlns:svg="http://www.w3.org/2000/svg">
  <defs
     id="defs13" />
  <sodipodi:namedview
     id="namedview11"
     pagecolor="#505050"
     bordercolor="#ffffff"
     borderopacity="1"
     inkscape:pageshadow="0"
     inkscape:pageopacity="0"
     inkscape:pagecheckerboard="1"
     showgrid="false"
     inkscape:zoom="2.3471839"
     inkscape:cx="140.38099"
     inkscape:cy="80.095983"
     inkscape:window-width="1440"
     inkscape:window-height="890"
     inkscape:window-x="-6"
     inkscape:window-y="-6"
     inkscape:window-maximized="1"
     inkscape:current-layer="g15" />
  <g
     inkscape:groupmode="layer"
     inkscape:label="Image"
     id="g15">
    <path
       style="fill:#000000;stroke-width:1.53459"
       d="m 5.3220598,81.855311 v -9.7025 l 9.1279002,0.18353 9.127895,0.18354 0.506718,5.7829 c 0.608648,6.94616 -1.34196,8.5009 -10.031478,7.99572 -3.947237,-0.22948 -6.3498439,0.27468 -6.3498439,1.33247 0,0.93589 -0.5357681,2.20229 -1.1905957,2.81423 -0.6548276,0.61193 -1.1905956,-3.25352 -1.1905956,-8.58989 z m 16.6683352,-3.40153 c 0,-4.20317 -0.352766,-4.45043 -6.349839,-4.45043 -6.0279225,0 -6.3754181,0.24901 -6.854482,4.91152 l -0.5046538,4.91151 6.8544978,-0.46108 c 6.448134,-0.43376 6.854477,-0.72492 6.854477,-4.91152 z m 8.334169,6.55681 c -3.191177,-1.73694 -3.728437,-8.78398 -0.873103,-11.45228 1.047724,-0.97909 4.95156,-1.78017 8.675187,-1.78017 6.862451,0 10.056851,2.52698 10.056851,7.95563 0,5.77601 -10.980816,9.02055 -17.858935,5.27682 z m 14.387729,-6.18594 c -0.470317,-4.55838 -0.843703,-4.8213 -6.84729,-4.8213 -6.003586,0 -6.376973,0.26292 -6.84729,4.8213 -0.496447,4.81168 -0.48281,4.82129 6.84729,4.82129 7.330101,0 7.343737,-0.009 6.84729,-4.82129 z m 6.560786,7.41737 c -0.781777,-3.39748 -0.386166,-18.91586 0.482207,-18.91521 0.654827,5.1e-4 1.190595,4.34007 1.190595,9.64349 0,5.30343 -0.357178,9.64259 -0.79373,9.64259 -0.436552,0 -0.832131,-0.16689 -0.879072,-0.37087 z m 6.752677,-1.4093 c -2.183203,-2.04019 -2.486218,-8.41771 -0.536466,-11.2908 0.873643,-1.28736 3.951428,-1.78891 9.103595,-1.48348 6.683798,0.39624 7.855408,0.93311 8.290991,3.79926 0.468825,3.08484 -0.102709,3.33782 -7.540439,3.33782 -6.311443,0 -8.047712,0.51096 -8.047712,2.36838 0,1.92166 1.497356,2.27144 7.938288,1.85434 7.835104,-0.50736 10.314273,0.54101 5.425291,2.2942 -4.212296,1.51053 -12.616393,1.0053 -14.633548,-0.87972 z m 15.160251,-8.97502 c -0.375768,-1.05348 -3.289568,-1.85435 -6.746708,-1.85435 -3.457141,0 -6.370941,0.80087 -6.746709,1.85435 -0.466158,1.30687 1.525724,1.85434 6.746709,1.85434 5.220984,0 7.212866,-0.54747 6.746708,-1.85434 z m 7.805021,9.7662 c -2.338345,-2.18517 -0.693307,-2.69595 7.065582,-2.19383 6.298632,0.40761 7.966704,0.074 7.418046,-1.48348 -0.4152,-1.17866 -3.599218,-2.20492 -7.701931,-2.48243 -7.201818,-0.48714 -9.74193,-2.22713 -8.317025,-5.69715 0.913202,-2.22389 15.593024,-2.85258 16.998165,-0.72796 0.45865,0.6935 -2.713812,0.94235 -7.049897,0.553 -6.53383,-0.5867 -7.883791,-0.29456 -7.883791,1.70604 0,1.862 1.588953,2.41395 6.949205,2.41395 8.102892,0 12.159488,3.03408 8.925403,6.67564 -1.992343,2.24337 -14.330961,3.17324 -16.403757,1.23622 z m 24.737922,0.006 c -1.11341,-0.41926 -1.98432,-3.29777 -1.98432,-6.55794 0,-3.19566 -0.72041,-5.81028 -1.60091,-5.81028 -0.96955,0 -0.84803,-1.12658 0.30815,-2.85667 1.56802,-2.34632 2.20852,-2.49532 3.58524,-0.83403 0.92189,1.11245 3.81924,2.29792 6.43855,2.63439 4.26251,0.54755 4.13755,0.63509 -1.19059,0.83404 -5.48693,0.20487 -5.95298,0.5666 -5.95298,4.6205 0,5.13717 4.14318,7.99979 8.37516,5.78659 1.68888,-0.88323 2.73707,-0.89584 2.73707,-0.0329 0,2.56741 -6.31888,3.87472 -10.71537,2.21691 z m 15.08089,-0.57001 c -3.33197,-1.87332 -3.70336,-9.23441 -0.58781,-11.65071 1.20465,-0.93428 5.88244,-1.57656 10.39509,-1.42731 l 8.20483,0.27139 -0.47346,6.78898 -0.47345,6.78899 -7.14357,0.39528 c -3.92897,0.21741 -8.3937,-0.30757 -9.92163,-1.16662 z m 14.37225,-6.42958 c -0.45147,-4.33409 -0.88375,-4.6269 -6.83181,-4.6269 -5.97354,0 -6.37882,0.27939 -6.83877,4.71446 -0.43463,4.19098 0.006,4.77045 3.96865,5.21879 8.12882,0.91971 10.23063,-0.22972 9.70193,-5.30577 z m 6.87779,1.21276 -0.21618,-7.51104 7.00898,-0.33905 c 3.85495,-0.18647 7.42689,0.29285 7.93766,1.06516 0.55542,0.83981 -1.59145,1.08833 -5.34151,0.61827 -6.72618,-0.84306 -6.72508,-0.84433 -8.54766,9.96901 -0.34382,2.03978 -0.72239,0.32873 -0.84129,-3.80235 z"
       id="path99"
       sodipodi:nodetypes="scccsssssssscssssssscsssccssscssssssssssssssssssssssssscsssssssssccssscccsscsssccscsscss" />
  </g>
</svg>
